<svg id="Layer_1" data-name="Layer 1" xmlns="http://www.w3.org/2000/svg" xmlns:xlink="http://www.w3.org/1999/xlink" viewBox="0 0 1920 1079.5"><defs><style>.cls-1{fill:#561e2c;}.cls-2{fill:url(#linear-gradient);}.cls-3{fill:url(#linear-gradient-2);}.cls-4{fill:url(#linear-gradient-3);}.cls-5{fill:url(#linear-gradient-4);}.cls-6{fill:url(#linear-gradient-5);}.cls-7{fill:url(#linear-gradient-6);}.cls-8{fill:url(#linear-gradient-7);}.cls-9{fill:url(#linear-gradient-8);}.cls-10{fill:url(#linear-gradient-9);}.cls-11{fill:url(#linear-gradient-10);}.cls-12{fill:url(#linear-gradient-11);}.cls-13{fill:url(#linear-gradient-12);}.cls-14{fill:url(#linear-gradient-13);}.cls-15{fill:url(#linear-gradient-14);}.cls-16{fill:url(#linear-gradient-15);}.cls-17{fill:url(#linear-gradient-16);}.cls-18{fill:url(#linear-gradient-17);}.cls-19{fill:url(#linear-gradient-18);}.cls-20{fill:url(#linear-gradient-19);}.cls-21{fill:url(#linear-gradient-20);}.cls-22{fill:url(#linear-gradient-21);}.cls-23{fill:url(#linear-gradient-22);}.cls-24{fill:url(#linear-gradient-23);}</style><linearGradient id="linear-gradient" x1="174.68" y1="107.75" x2="175.2" y2="107.75" gradientUnits="userSpaceOnUse"><stop offset="0" stop-color="#631417"/><stop offset="1" stop-color="#a52b31"/></linearGradient><linearGradient id="linear-gradient-2" x1="186.85" y1="115.11" x2="187.46" y2="115.11" xlink:href="#linear-gradient"/><linearGradient id="linear-gradient-3" x1="176.38" y1="109.34" x2="178.77" y2="109.34" xlink:href="#linear-gradient"/><linearGradient id="linear-gradient-4" x1="183.18" y1="113.82" x2="186.85" y2="113.82" xlink:href="#linear-gradient"/><linearGradient id="linear-gradient-5" x1="178.77" y1="111.39" x2="183.18" y2="111.39" xlink:href="#linear-gradient"/><linearGradient id="linear-gradient-6" x1="175.2" y1="108.27" x2="176.38" y2="108.27" xlink:href="#linear-gradient"/><linearGradient id="linear-gradient-7" x1="171.63" y1="105.99" x2="172.39" y2="105.99" xlink:href="#linear-gradient"/><linearGradient id="linear-gradient-8" x1="171.39" y1="105.68" x2="171.63" y2="105.68" xlink:href="#linear-gradient"/><linearGradient id="linear-gradient-9" x1="173.81" y1="107.33" x2="174.68" y2="107.33" xlink:href="#linear-gradient"/><linearGradient id="linear-gradient-10" x1="172.39" y1="106.57" x2="173.55" y2="106.57" xlink:href="#linear-gradient"/><linearGradient id="linear-gradient-11" x1="173.55" y1="106.99" x2="173.81" y2="106.99" xlink:href="#linear-gradient"/><linearGradient id="linear-gradient-12" x1="170.88" y1="105.46" x2="171.39" y2="105.46" xlink:href="#linear-gradient"/><linearGradient id="linear-gradient-13" x1="194.26" y1="119.59" x2="194.9" y2="119.59" xlink:href="#linear-gradient"/><linearGradient id="linear-gradient-14" x1="193.68" y1="119.22" x2="194.26" y2="119.22" xlink:href="#linear-gradient"/><linearGradient id="linear-gradient-15" x1="194.9" y1="119.86" x2="195.15" y2="119.86" xlink:href="#linear-gradient"/><linearGradient id="linear-gradient-16" x1="195.15" y1="119.98" x2="195.3" y2="119.98" xlink:href="#linear-gradient"/><linearGradient id="linear-gradient-17" x1="187.46" y1="115.86" x2="189.33" y2="115.86" xlink:href="#linear-gradient"/><linearGradient id="linear-gradient-18" x1="1.05" y1="539.81" x2="1920" y2="539.81" xlink:href="#linear-gradient"/><linearGradient id="linear-gradient-19" x1="189.33" y1="116.46" x2="189.46" y2="116.46" xlink:href="#linear-gradient"/><linearGradient id="linear-gradient-20" x1="193.18" y1="118.9" x2="193.68" y2="118.9" xlink:href="#linear-gradient"/><linearGradient id="linear-gradient-21" x1="189.46" y1="116.84" x2="190.59" y2="116.84" xlink:href="#linear-gradient"/><linearGradient id="linear-gradient-22" x1="190.59" y1="117.71" x2="192.35" y2="117.71" xlink:href="#linear-gradient"/><linearGradient id="linear-gradient-23" x1="192.35" y1="118.5" x2="193.18" y2="118.5" xlink:href="#linear-gradient"/></defs><title>1</title><path class="cls-1" d="M522.47,136h0c120.3-7.42,256-17.1,315.5-17.1,96.37,0,149.79,76.29,443.08,76.29s469.26-97.34,639-97.34V.5H1.05V85.32S167,100.49,218.6,131.61h0s137.54,53.92,137.54,187.22S287,506.49,287,627.5,402.23,792.37,402.23,899.35c0,27.16,17.67,59.86-21.55,58.87s-26.1-1-39.21-1C228.35,957.23,0,1021.59,0,1021.59V1080H1919l1-307.29s-204.26,195-361.37,195-243-52.61-431.56-52.61c-166.24,0-292.46,99.92-372.48,65.74s143.08-136.77-87.36-136.77S533.16,684.5,568.77,654.69s99.51-90.32-29.33-198.19-85.89-199.94-12.57-199.94,108.94-61.38,21-61.38S497.11,138.19,522.47,136Z" transform="translate(0 -0.5)"/><path class="cls-2" d="M174.68,107.6l.52.31Z" transform="translate(0 -0.5)"/><path class="cls-3" d="M186.85,114.93l.61.37Z" transform="translate(0 -0.5)"/><path class="cls-4" d="M176.38,108.62l2.39,1.44Z" transform="translate(0 -0.5)"/><path class="cls-5" d="M183.18,112.72l3.67,2.21Z" transform="translate(0 -0.5)"/><path class="cls-6" d="M178.77,110.06l4.41,2.66Z" transform="translate(0 -0.5)"/><path class="cls-7" d="M175.2,107.91l1.18.71Z" transform="translate(0 -0.5)"/><path class="cls-8" d="M171.63,105.76l.76.46Z" transform="translate(0 -0.5)"/><path class="cls-9" d="M171.39,105.61l.24.15Z" transform="translate(0 -0.5)"/><path class="cls-10" d="M173.81,107.07l.87.53Z" transform="translate(0 -0.5)"/><path class="cls-11" d="M172.39,106.22l1.16.69Z" transform="translate(0 -0.5)"/><path class="cls-12" d="M173.55,106.91l.26.16A2.26,2.26,0,0,1,173.55,106.91Z" transform="translate(0 -0.5)"/><path class="cls-13" d="M170.88,105.3l.51.31C171.06,105.42,170.88,105.3,170.88,105.3Z" transform="translate(0 -0.5)"/><path class="cls-14" d="M194.26,119.4l.64.38Z" transform="translate(0 -0.5)"/><path class="cls-15" d="M193.68,119.05l.58.35Z" transform="translate(0 -0.5)"/><path class="cls-16" d="M194.9,119.78l.25.15Z" transform="translate(0 -0.5)"/><path class="cls-17" d="M195.15,119.93Z" transform="translate(0 -0.5)"/><path class="cls-18" d="M187.46,115.3l1.87,1.12Z" transform="translate(0 -0.5)"/><path class="cls-19" d="M343.39,985.13c-41.73-1.06-27.78-1.06-41.73-1.06-81.83,0-220.28,31.64-300.61,51.91v43.14H1920V840.88c-76.68,61.51-211,154.39-322.84,154.39-167.23,0-258.65-56-459.33-56-176.95,0-311.29,106.36-396.47,70s152.3-145.58-93-145.58S505.68,693.79,543.59,662.06s105.91-96.14-31.22-210.95S421,238.3,499,238.3s116-65.34,22.3-65.34-54-60.65-27-63c128.05-7.9,272.5-18.21,335.81-18.21,102.58,0,159.43,81.2,471.61,81.2,276.81,0,455.44-81.45,618.28-99.9V.5H1.05V63.29C57.48,71,137.12,85,170.88,105.3c0,0,146.38,57.4,146.38,199.27s-73.58,199.74-73.58,328.55S366.32,808.6,366.32,922.47C366.32,951.38,385.13,986.18,343.39,985.13Z" transform="translate(0 -0.5)"/><path class="cls-20" d="M189.33,116.42l.13.09Z" transform="translate(0 -0.5)"/><path class="cls-21" d="M193.18,118.75l.5.3Z" transform="translate(0 -0.5)"/><path class="cls-22" d="M189.46,116.51l1.13.67Z" transform="translate(0 -0.5)"/><path class="cls-23" d="M190.59,117.18l1.76,1.07Z" transform="translate(0 -0.5)"/><path class="cls-24" d="M192.35,118.25l.83.5Z" transform="translate(0 -0.5)"/></svg>