<svg id="Layer_1" data-name="Layer 1" xmlns="http://www.w3.org/2000/svg" xmlns:xlink="http://www.w3.org/1999/xlink" viewBox="0 0 1920 1080"><defs><style>.cls-1{fill:#8d3d1a;}.cls-2{fill:url(#linear-gradient);}.cls-3{fill:url(#linear-gradient-2);}</style><linearGradient id="linear-gradient" x1="1.05" y1="614.59" x2="29.69" y2="614.59" gradientUnits="userSpaceOnUse"><stop offset="0" stop-color="#d04711"/><stop offset="1" stop-color="#692809"/></linearGradient><linearGradient id="linear-gradient-2" x1="1.05" y1="540" x2="1920" y2="540" xlink:href="#linear-gradient"/></defs><title>2</title><path class="cls-1" d="M1382.65,966c-79.61-7-54.35-60.91-3.14-86.79,111-56.1,165.5-64.87,226.25-73.63s90.08-15.78,100.56-101.69-90.08-64.87-157.12-43.83-142.46,15.78-148.74-71.89,58.66-49.09,113.12-49.09,52.38-15.78,54.47-42.07-31.42-61.37-102.65-73.64-88-70.13-81.7-121,75.42-131.5,209.49-103.45,129.89,7,150.84-28.05,8.38-38.57-27.24-64.87c-12.46-9.2-41.78,1.16-9.89-31.41s211-39.35,211-39.35L1919,0H0V1080l1919-1.75V923.87c-58.66,0-173.88,52.69-274.43,52.69S1462.26,973.05,1382.65,966Zm-838-77.14c-163.4,0-152.93,108.7-333.09,108.7S81.7,820.52,81.7,717.08s21-219.16,21-252.47S62.85,405,62.85,361.17s31.42-154.29,123.6-154.29,81.7-12.27,113.12-38.57S425.27,107,636.86,107c162.93,0,299.76,26,424.87,37.93.13,0,96.76,11.2,92.57,70.77s4.19,59.61,58.66,119.22,157.27,244.54,25.14,443.57c-31.42,47.34-27.23,22.79-77.51,35.07s-88,59.61-41.9,98.18,169.69,50.84,48.91,86.61h0c-54.91,10.89-112.79,20.34-176.7,20.34C840.07,1018.64,708.09,888.9,544.68,888.9Z"/><path class="cls-2" d="M29.69,458.19c0-22.07-16.1-41.32-28.64-63.78V834.77C3,798.32,7,762.35,7,732.16,7,619.91,29.69,494.34,29.69,458.19Z"/><path class="cls-3" d="M1894.27.88H1.05V275.94c18.28-48,55.33-97.42,119.57-97.42,100,0,88.66-13.32,122.76-41.86s136.4-66.59,366-66.59c176.8,0,325.29,28.19,461.05,41.16.14,0,105,12.16,100.45,76.8s4.55,64.69,63.66,129.37,170.65,265.36,27.28,481.35c-34.1,51.36-29.56,24.73-84.12,38s-95.47,64.68-45.46,106.54,184.14,55.17,53.07,94c-59.58,11.81-122.39,22.06-191.74,22.06-163.68,0-306.9-140.78-484.22-140.78S343.41,1036.56,147.9,1036.56c-110.59,0-141.16-61.49-146.85-135.23v177.79H1920V971.23c-64.09,16.94-144.17,42.5-217.15,42.5-109.12,0-197.78-3.8-284.16-11.41s-59-66.1-3.41-94.18c120.48-60.88,179.59-70.39,245.51-79.91s97.76-17.12,109.12-110.34-97.75-70.4-170.5-47.57-154.58,17.13-161.4-78,63.65-53.27,122.76-53.27,56.83-17.12,59.1-45.66-34.1-66.59-111.39-79.91-95.48-76.1-88.66-131.27S1501.66,139.52,1647.15,170s140.95,7.61,163.68-30.44,9.1-41.86-29.55-70.4c-13.52-10-45.34,1.26-10.74-34.09C1787.44,17.77,1842.42,7.19,1894.27.88Z"/></svg>