<svg id="Layer_1" data-name="Layer 1" xmlns="http://www.w3.org/2000/svg" xmlns:xlink="http://www.w3.org/1999/xlink" viewBox="0 0 1920 1080.5"><defs><style>.cls-1{fill:#4542a3;}.cls-2{fill:url(#linear-gradient);}</style><linearGradient id="linear-gradient" x1="1.05" y1="539.75" x2="1918.95" y2="539.75" gradientUnits="userSpaceOnUse"><stop offset="0" stop-color="#726fb9"/><stop offset="1" stop-color="#1b178d"/></linearGradient></defs><title>3</title><path class="cls-1" d="M1612.08,85.26C1727.37,48.84,1812.51,61.5,1919,69l1-68.65H0L1.05,229.2,236.6,268S358,293.24,422.94,221.61,559,131,632.32,194.22,837.51,238.46,959,173.15c14-7.53,29.84-15.24,47.77-22.94h0l2-.84c15.19-6.39,113.75-46.07,115.68.6,2.1,50.57,18.85,107.45,127.72,75.85s117.25,16.85,123.54,109.56c5.6,82.74-86.85,466.26-163.82,535.47S1042.27,972.72,913.94,972.72C687.81,972.72,497.27,899,384.21,899S0,1019.37,0,1019.37v59.75H1917.91v-77.55s-303-134.49-343.08-182.28S1448.07,648.63,1448.9,539.75c1-138,58.62-141.16,106.78-193.84s85.85-134.84-10.47-120.09C1463.47,238.34,1496.78,121.68,1612.08,85.26Z" transform="translate(0 0.5)"/><path class="cls-2" d="M910.62,1003.88c-242.4,0-446.65-79-567.85-79-83.62,0-247.88,61.42-341.72,99.51V1080H1919v-76.12c-97.66-45.29-269.44-128.19-299.87-164.47-43-51.22-135.88-182.94-135-299.66,1.12-147.94,62.84-151.32,114.47-207.79s92-144.55-11.23-128.74c-87.62,13.42-51.92-111.63,71.68-150.68C1756.78,21.66,1834.33,23.71,1919,29.9V-.5H1.05V218.2l183.48,30.2s130.18,27.1,199.76-49.69,145.89-97.12,224.45-29.36,220,47.43,350.14-22.59c15-8.06,32-16.33,51.2-24.59h0l2.09-.89c16.29-6.86,121.94-49.39,124,.64,2.25,54.2,20.2,115.18,136.92,81.3s125.69,18.07,132.42,117.45c6,88.69-93.1,499.81-175.61,574S1048.19,1003.88,910.62,1003.88Z" transform="translate(0 0.5)"/></svg>