<svg id="Layer_1" data-name="Layer 1" xmlns="http://www.w3.org/2000/svg" xmlns:xlink="http://www.w3.org/1999/xlink" viewBox="0 0 1920 1080.5"><defs><style>.cls-1{fill:#263a61;}.cls-2{fill:url(#linear-gradient);}</style><linearGradient id="linear-gradient" x1="1.05" y1="539.31" x2="1918.95" y2="539.31" gradientUnits="userSpaceOnUse"><stop offset="0" stop-color="#1f2d4a"/><stop offset="1" stop-color="#3559aa"/></linearGradient></defs><title>4</title><path class="cls-1" d="M2.09,2.13l-1,129.05S100.5,151.6,167.5,151.6s299.41-27.36,406.2-27.36,412.47,27.36,730.73,27.36,265.91-16.84,349.66-16.84S1769.25,240,1769.25,496.86s-44,317.88-129.82,364.2-129.81,73.68-255.44,42.1-131.91-40-226.13-40-228.22,67.37-379,67.37-245-218.94-364.32-218.94-136.1,63.15-182.16,63.15-102.6-40-136.1-40S1.57,774.9,1.57,774.9L0,1080H1917.91L1920,2.13Z" transform="translate(0 0.5)"/><path class="cls-2" d="M1919-.5H1.05v108c30.34,4,63.56,7.3,91.59,7.3,73.33,0,327.7-29.95,444.57-29.95s451.43,30,799.75,30,291-18.43,382.7-18.43,126,115.2,126,396.3-48.12,347.92-142.08,398.61S1561.54,971.93,1424,937.37s-144.37-43.78-247.49-43.78-249.78,73.73-414.77,73.73S493.67,727.7,363.05,727.7s-149,69.12-199.37,69.12S51.39,753,14.73,753a67,67,0,0,0-13.68,1.63v324.45H1919Z" transform="translate(0 0.5)"/></svg>