<svg id="Layer_1" data-name="Layer 1" xmlns="http://www.w3.org/2000/svg" xmlns:xlink="http://www.w3.org/1999/xlink" viewBox="0 0 1920.5 1080.26"><defs><style>.cls-1{fill:#783d76;}.cls-2{fill:url(#linear-gradient);}</style><linearGradient id="linear-gradient" x1="-0.5" y1="541.41" x2="1918.95" y2="541.41" gradientUnits="userSpaceOnUse"><stop offset="0" stop-color="#9f509c"/><stop offset="1" stop-color="#512c51"/></linearGradient></defs><title>5</title><path class="cls-1" d="M-.5-.26V1077.37H1920V-.26ZM1716.28,794.28c-48.46,132.66-152,178.8-268.7,178.8s-237.86-42.3-301.73-98.05-103.51-80.75-185-80.75-244.47,150-328.16,150-110.12,57.68-259.88,57.68S146,794.28,146,663.54s-22-278.78,171.79-336.46,189.41-75,189.41-134.58S414.65,56,692.16,56s466.91,46.15,662.92,46.15,242.27-140.36,394.23,46.14C1908.89,344.11,1764.73,661.62,1716.28,794.28Z" transform="translate(0.5 0.26)"/><path class="cls-2" d="M-.5,2.82V1080H1919V2.82ZM1754.25,807.11c-50.89,139.32-159.6,187.78-282.18,187.78s-249.8-44.42-316.88-103-108.7-84.81-194.28-84.81S704.17,964.6,616.28,964.6s-115.65,60.58-272.93,60.58S105.12,807.11,105.12,669.81,82,377,285.53,316.47s198.91-78.75,198.91-141.34S387.3,31.77,678.73,31.77s490.34,48.46,696.19,48.46,254.43-147.4,414,48.46C1956.53,334.35,1805.13,667.79,1754.25,807.11Z" transform="translate(0.5 0.26)"/></svg>