<svg id="Layer_1" data-name="Layer 1" xmlns="http://www.w3.org/2000/svg" xmlns:xlink="http://www.w3.org/1999/xlink" viewBox="0 0 1919 1080"><defs><style>.cls-1{fill:#43091a;}.cls-2{fill:url(#linear-gradient);}.cls-3{fill:url(#linear-gradient-2);}</style><linearGradient id="linear-gradient" x1="1" y1="540" x2="230.7" y2="540" gradientUnits="userSpaceOnUse"><stop offset="0" stop-color="#43091a"/><stop offset="1" stop-color="#821b36"/></linearGradient><linearGradient id="linear-gradient-2" x1="1662.79" x2="1920" xlink:href="#linear-gradient"/></defs><title>6</title><path class="cls-1" d="M1,0V1080H146.23c-18.16-14.27-54.1-59.21-54.1-191.48,0-177,35.62-217.36,81.71-259.68s85.89-17.31,85.89-88.48-44-51.94-75.42-51.94-92.18,26.93-92.18-175c0-171.77,82.36-283.72,107-313.37Z" transform="translate(-1)"/><path class="cls-1" d="M1756.59,110.44c29.33-13.47,65-19.24,65,40.39s-2.1,53.86-2.1,165.43-79.61,128.88-79.61,225.06,117.32,128.88,117.32,288.53c0,150.68-236.19,240.52-262.76,250.15H1920V0H1663C1667.11,89,1728.27,123.44,1756.59,110.44Z" transform="translate(-1)"/><path class="cls-2" d="M1,0V1080H97.56c-18.92-21.87-41.41-70.31-41.41-177.08,0-184.3,37.09-226.38,85.09-270.45s89.46-18,89.46-92.15-45.82-54.1-78.55-54.1-96,28-96-182.3C56.15,139.62,128.51,37,160.2,0Z" transform="translate(-1)"/><path class="cls-3" d="M1787.48,92.56c30.55-14,67.64-20,67.64,42.07s-2.18,56.1-2.18,172.29S1770,441.15,1770,541.32s122.19,134.22,122.19,300.5c0,122.8-150.64,204.07-229.42,238.18H1920V0H1690.3C1696.91,86.82,1758.59,105.83,1787.48,92.56Z" transform="translate(-1)"/></svg>