<svg id="Layer_1" data-name="Layer 1" xmlns="http://www.w3.org/2000/svg" xmlns:xlink="http://www.w3.org/1999/xlink" viewBox="0 0 1920 1080"><defs><style>.cls-1{fill:#803e3a;}.cls-2{fill:none;}.cls-3{fill:url(#linear-gradient);}.cls-4{fill:url(#linear-gradient-2);}</style><linearGradient id="linear-gradient" x1="1.05" y1="1007.51" x2="1918.95" y2="1007.51" gradientUnits="userSpaceOnUse"><stop offset="0" stop-color="#803e3a"/><stop offset="1" stop-color="#a92a22"/></linearGradient><linearGradient id="linear-gradient-2" x1="1.05" y1="122.76" x2="1918.95" y2="122.76" xlink:href="#linear-gradient"/></defs><title>7</title><path class="cls-1" d="M0,1079.12H1920v-205S1738.35,992,1300.18,992s-616.51-57.5-810.27-57.5S0,1034.12,0,1034.12Z"/><path class="cls-1" d="M1920,0V179.76S1853.94,203,1750.46,203s-273-82.88-409.54-82.88-218,145.46-330.28,145.46S799.27,104.87,676,104.87,579.08,203,471.19,203s-94.68-82.88-211.37-82.88S1.1,299.77,1.1,299.77L0,0Z"/><rect class="cls-2" x="1.05" y="0.88" width="1917.91" height="1079.12"/><path class="cls-3" d="M1919,1080V935c-95,37.55-285.16,91.54-592.8,91.54-471.61,0-663.57-61.89-872.13-61.89-146.06,0-346.16,52.59-453,84.1V1080Z"/><path class="cls-4" d="M1.05.88V202.37C56.87,148.93,135.9,88.07,206.37,88.07c125.6,0,111.38,89.21,227.51,89.21s87.69-105.6,220.4-105.6,239.36,173,360.23,173S1223.06,88.07,1370,88.07s329.41,89.21,440.8,89.21A708.63,708.63,0,0,0,1919,169.14V.88Z"/></svg>