<svg id="Layer_1" data-name="Layer 1" xmlns="http://www.w3.org/2000/svg" xmlns:xlink="http://www.w3.org/1999/xlink" viewBox="0 0 1920 1080.5"><defs><style>.cls-1{fill:#381c23;}.cls-2{fill:url(#linear-gradient);}.cls-3{fill:url(#linear-gradient-2);}</style><linearGradient id="linear-gradient" x1="1.05" y1="539.75" x2="1920" y2="539.75" gradientUnits="userSpaceOnUse"><stop offset="0" stop-color="#51252f"/><stop offset="1" stop-color="#6a2e3d"/></linearGradient><linearGradient id="linear-gradient-2" x1="1688.05" y1="30.9" y2="30.9" xlink:href="#linear-gradient"/></defs><title>8</title><path class="cls-1" d="M1554.3,58.69c19-14.49,23.18-46.51,75.55-29.66S1824.68,97.3,1920,97.3L1919,.38,0,3.75V137.32s132,53.52,234.63,53.52S408.51,96.45,479.74,96.45,905,190.84,1039.08,190.84c67.61,0,120.86-41.14,205.63-81.94,45.79-17.24,108.61-22,108.61,81.94,0,91-33.52,91-127.79,111.25s-125.69,111.24-27.23,128.1,123.6,8.43,123.6,109.56c0,94.3,3.6,297-208.2,397.78C962.91,939.42,994.08,988.1,838,988.1c-159.21,0-437.84,32-546.78,32S1.05,937.46,1.05,937.46L0,1079.12H1919l1-141.66H1602.67C1503.79,825.44,1307.23,463.9,1554.3,58.69Z" transform="translate(0 0.5)"/><path class="cls-2" d="M1920,963.94H1645.44C1540,844.46,1330.34,458.85,1593.85,26.67c9.66-7.37,15.74-19,25.5-27.17H1.05V133.29c50.84,15.91,123.11,34.33,185.3,34.33C295.84,167.62,371.8,67,447.77,67s453.58,100.67,596.58,100.67c72.11,0,128.89-43.88,219.31-87.39,48.84-18.4,115.84-23.44,115.84,87.39,0,97.08-35.75,97.08-136.3,118.65s-134.06,118.65-29,136.63,131.83,9,131.83,116.85c0,100.58,3.84,316.79-222.06,424.25-160.83,2-127.58,53.94-294.08,53.94-169.81,0-467,34.16-583.17,34.16-73.88,0-178.93-35.65-245.63-61.61V1080H1920Z" transform="translate(0 0.5)"/><path class="cls-3" d="M1688.05-.5c50.61,16.74,147.14,49.72,232,62.8V-.5Z" transform="translate(0 0.5)"/></svg>